<svg xmlns="http://www.w3.org/2000/svg" width="678" height="382" fill="none"><path fill="#0B2330" d="M406.42 219.94a24.28 24.28 0 0 0 1-15.02 22.9 22.9 0 0 0-2.12-5.17 19.48 19.48 0 0 0-6.4-7.26 14.85 14.85 0 0 0-9.25-2.4 13.94 13.94 0 0 0-7.89 3.42c-2.88 2.46-4.68 5.85-6.4 9.27-.52 1.07-1.63.64-2.36-.79a6.65 6.65 0 0 1 .45-6.3 21.38 21.38 0 0 1 11.07-9.18 18.27 18.27 0 0 1 14.38 1.03 25.14 25.14 0 0 1 11.48 12.28 29.22 29.22 0 0 1 1.5 17.95 27.17 27.17 0 0 1-4.77 10.07 21.13 21.13 0 0 1-6.46 5.56 18.75 18.75 0 0 1-8.22 2.31 20.5 20.5 0 0 1-6.58-.8 20.08 20.08 0 0 1-5.95-2.94c-.8-.56-1.56-1.18-2.27-1.85a9.18 9.18 0 0 1-2.26-3.13 2.3 2.3 0 0 1 .12-2.05c.13-.3.29-.57.48-.83.69-.75 1.95.04 3.52 1.6 2.25 2.29 5.04 3.99 8.11 4.94 3 .89 6.2.75 9.09-.4a17.78 17.78 0 0 0 9.62-10.34l.11.03Z"/><path fill="#F9C600" d="m355.56 218.78 18.15-9.28s7.78 22.22 5.18 33.44l-12.1 5.39-11.23-29.55Z"/><path fill="#F9C600" d="M355.64 219.03a36.44 36.44 0 0 0 2.16 11.48 210.8 210.8 0 0 0 2.65 7.6l1.88 5.03 3.17 8.3.2-.1c2.65-1.16 5.55-2.45 8.44-3.73l3.2-1.41 1.8-.8 1.46-.66.36-.17c.08-.08.05-.24.09-.36l.12-.77.18-1 .15-.88c.06-.3.1-.6.13-.9l.17-2.3v-2.81c-.21-3.97-.74-7.92-1.59-11.8a85.48 85.48 0 0 0-2.59-9.41l-.75-2.15-.52-1.48-.68-1.81-.65-1.72-.16-.41c-.15.05-.28.11-.41.2l-.82.44c-1.08.58-2.13 1.18-3.1 1.74l-.52.3-.4.26-.82.51-1.55 1c-1 .66-1.95 1.3-2.85 1.88a93.2 93.2 0 0 0-4.52 3.26c-4.92 3.81-5.24 5.31 1.27 2.16l11.1-5.5.01.02v.01l.04.14.15.48a139.76 139.76 0 0 1 3 11.6 64 64 0 0 1 1.53 12.6c.01.78-.07 1.46-.1 2.08 0 .28-.02.56-.07.83-.04.23-.1.55-.07.46v.03l-.03.02-.6.28-1.47.69-2.93 1.35-2.92 1.36c-.67.3-.5.24-.58.28l-.17.1-.07-.13-.05-.08-.02-.04-.13-.31-1.09-2.73-2.18-5.41c-5.15-12.76-8.6-19.64-8.85-17.62ZM348.21 145.88l17.07-6.69s2.6 17.9 4.54 25.67l-12.1 5.4-9.5-24.38Z"/><path fill="#F9C600" d="M348.28 146.09a25.99 25.99 0 0 0 1.57 9.67c.55 1.7 1.27 3.75 2.2 6.26l1.58 4.14c.86 2.2 1.8 4.58 2.81 7.2l1.05-.47 7.02-3.11 6.1-2.72.78-.34.93-.4c.06-.06.24-.05.22-.16l-.07-.31-.16-.69a967 967 0 0 1-.69-3.1l-.41-2.15c-.58-3.08-1.2-6.85-1.64-9.5-.36-2.07-.72-4.07-1.1-6l-.61-3.14-.91-4.94-4.76 2.11-.52.24-.3.15-.6.31-1.16.6c-1.52.8-2.9 1.57-4.13 2.29a44.41 44.41 0 0 0-5.48 3.63c-2.27 1.88-1.61 2.5 3.05.8l10.24-3.83v.02l.08.56.18 1.23.78 4.86a336.65 336.65 0 0 0 2.31 12.6l.34 1.52.02.02c.01.05-.05.06-.04.06a8503.02 8503.02 0 0 1-7.6 3.55l-.15.07-.03.02-.03.02-.06.04-.15.1-.15-.24-.83-1.98-1.8-4.31c-4.47-10.7-7.55-16.44-7.88-14.68Z"/><path fill="#51CEBC" d="m406.8 241.58 3.94 3.68a.68.68 0 0 1 .23.54.7.7 0 0 1-.27.52l-18.86 14.75a.71.71 0 0 1-.78.06.74.74 0 0 1-.2-.18l-4.16-5.3a.7.7 0 0 1-.04-.8.72.72 0 0 1 .2-.2l19.06-13.13a.7.7 0 0 1 .88.06Z"/><path fill="#0B2330" d="M390.43 255.72c-.04.05-.02.09-.01.16.05.1-.1-.03.43.7l.57.81.07.17c.06.1.1.29.22.38.15.05.24-.07.38-.12l.18-.12.57-.46c.46-.37.92-.74 1.4-1.08l10.28-7.14a37.4 37.4 0 0 0 3.54-2.8c.15-.2.45-.33.31-.63-.19-.18-.4-.36-.62-.51a4.07 4.07 0 0 1-.25-.23l-.35-.37c-.4-.42-.77-.87-1.1-1.34-.44-.61.45-1.41 1.69-1.83a5.23 5.23 0 0 1 2.52-.21c.2.03.4.1.57.22.56.35 1.1.74 1.57 1.18l.5.45a3.76 3.76 0 0 1 1.22 2.51 3.87 3.87 0 0 1-.76 2.6c-.36.43-.77.8-1.24 1.12l-1.4 1.06-.9.67-.72.5a92.9 92.9 0 0 1-5.97 3.87c-2.52 1.5-4.77 3.5-7.17 5.26l-2.66 1.97c-.48.32-1.01.54-1.58.66a2.07 2.07 0 0 1-1.6-.41c-.91-.8-1.71-1.74-2.36-2.77l-1.77-2.42-.29-.38a4.82 4.82 0 0 1-.78-1.72c-.05-.32-.02-.65.1-.95.13-.26.3-.5.52-.72a7.3 7.3 0 0 1 1.62-1.26l1.52-1c2.55-1.66 5.14-3.28 7.59-5.04 1.9-1.38 3.62-2.95 5.4-4.43.4-.33.77-.68 1.18-1a4.26 4.26 0 0 1 1.8-.94l.18-.02c.1 0 .2-.01.28-.05.27-.08.54-.1.81-.03a1.1 1.1 0 0 1 .83.8 1.07 1.07 0 0 1-.33 1.15l-.1.12c0-.01 0 0 0 0l.64.93v.02l-.02.02-.05.1c-.17.28-.37.54-.6.77a66.88 66.88 0 0 1-10.09 8.11c-2.4 1.67-6.57 4.38-5.62 3.69l-.15-.02ZM328.45 133.02a22.1 22.1 0 0 1 6.37.43c2.13.47 4.17 1.3 6.01 2.46 1.35.78 2.6 1.71 3.74 2.77a35.5 35.5 0 0 1 7.78 13.29c.75 2.1 1.5 4.19 2.15 6.29a25.42 25.42 0 0 1 1.68 8.3c-.03.92-1.23.9-2.47.35a4.77 4.77 0 0 1-2.87-3.07 93.68 93.68 0 0 0-4.63-15.3 19.9 19.9 0 0 0-5.77-7.45 15.08 15.08 0 0 0-9.3-3.6c-2.22-.05-4.45.13-6.64.54-3.3.55-6.43 1.89-9.11 3.9a15.8 15.8 0 0 0-4.4 5.96c-.22.5-.35 1.01-.56 1.5-.68 1.86-1.04 2.35-2.36 2.53-.3.05-.6.13-.88.16-.97.12-1.63-1.11-1.3-2.94.56-2.78 1.78-5.4 3.57-7.6a21.29 21.29 0 0 1 6.77-5.52 29.96 29.96 0 0 1 12.2-3.11l.02.1Z"/><path fill="#0B2330" d="M352.38 115.31a20.38 20.38 0 0 0-6.08-4.64 22.89 22.89 0 0 0-7.53-2.07 33.54 33.54 0 0 0-5.9.05 62.76 62.76 0 0 0-20.77 5.86 71.4 71.4 0 0 0-8.57 4.71c-3.52 2.23-6.8 4.83-10.4 6.92-1.1.65-1.73-.37-1.54-1.97a7.76 7.76 0 0 1 3.3-5.19 83.92 83.92 0 0 1 23.82-11.74c2.6-.73 5.22-1.5 7.93-2.12 2.73-.63 5.52-1.01 8.32-1.14 3.14-.08 6.27.3 9.29 1.15 3.04.87 5.9 2.31 8.41 4.24a34.91 34.91 0 0 1 7.44 8.51c.82 1.16 1.43 2.44 2.13 3.67.58 1.28 1.25 2.52 1.73 3.84a68.8 68.8 0 0 1 2.66 7.9 86.5 86.5 0 0 1 2.58 12.51c.13.94.26 1.85.3 2.8.16 3.53-.28 4.67-1.53 5.34-.27.17-.56.32-.86.43-.99.26-1.63-1.15-1.9-3.56a92.45 92.45 0 0 0-4.62-21.56 39.47 39.47 0 0 0-8.29-13.85l.08-.09ZM310.45 156.53a110.8 110.8 0 0 0 8.25-7.1 27.86 27.86 0 0 0 3.58-4.1.96.96 0 0 0 .11-.28.42.42 0 0 0-.32-.47 2.79 2.79 0 0 0-.6-.18 4.67 4.67 0 0 0-2.05.16c-1.07.4-2.05.96-2.94 1.66-1.8 1.33-3.64 3.06-5.63 4.67-2 1.68-4.17 3.17-6.46 4.43a30.73 30.73 0 0 1-7.4 2.85c-1.25.33-2.27.63-3.41.97-1.08.47-2.2.82-3.25 1.38a44.14 44.14 0 0 0-10.4 7.37c-4.03 3.73-7.47 8.07-11.16 12.14-1.11 1.26-1.98.43-2.03-1.46a11.57 11.57 0 0 1 3.03-7.35 68.24 68.24 0 0 1 13.4-11.92c2.58-1.7 5.35-3.1 8.26-4.17.73-.28 1.49-.52 2.26-.7.73-.2 1.6-.45 2.2-.56a26.4 26.4 0 0 0 3.8-1.11 27.5 27.5 0 0 0 8.34-5.19c1.3-1.11 2.58-2.32 3.97-3.53a19.68 19.68 0 0 1 4.9-3.34 9.38 9.38 0 0 1 5.69-.6c.4.07.78.18 1.15.33.39.14.78.26 1.15.43a3.83 3.83 0 0 1 2.2 2.28 4.56 4.56 0 0 1-.32 3.22c-.24.52-.51 1.03-.82 1.52a27.9 27.9 0 0 1-2.21 2.8 72.42 72.42 0 0 1-6.46 6.1c-3.7 3.14-7.52 6.07-11.36 8.97-5.83 4.37-11.83 8.53-17.7 12.72a401.64 401.64 0 0 0-6.73 4.94l-3.33 2.47-1.67 1.24-.95.68-1.36.95-2.46 1.73c-.12.15-.17-.08-.25-.14l-.22-.3-.44-.58-.88-1.2-1.42-2-.73-1.1a12.5 12.5 0 0 1-.94-1.72 3.36 3.36 0 0 1-.24-2.45c.07-.35.17-.69.31-1.01.53-.9 2.24.16 4.39 2.73l.6.7c.13.2.29.37.45.54l.33.24c.05.03.1.07.13.07l.16-.17.25-.3.04-.03.16-.13.38-.28.77-.56 1.53-1.13 3.1-2.26 12.63-9.06a412.92 412.92 0 0 0 18.54-13.9l.08.09Z"/><path fill="#0B2330" d="M338.21 338.87c-25.96 16.72-54.5 29.78-84.67 36.95a217.45 217.45 0 0 1-46.02 6.13c-7.77.18-15.54-.16-23.27-1.01a131.5 131.5 0 0 1-22.94-4.53 80.38 80.38 0 0 1-15.99-6.46c-5.05-2.8-10.09-6.23-13.45-11.69a19.07 19.07 0 0 1-2.73-9c-.13-3.02.18-6.05.91-8.99a71.2 71.2 0 0 1 6.4-16.05c9.43-17.68 21.92-33.09 31.72-49.87a76.3 76.3 0 0 0 6.19-12.9 26.24 26.24 0 0 0 1.47-6.63c.21-2.05-.17-4.13-1.1-5.98l-.38-.64-.34-.43-.45-.4-.55-.36a11.9 11.9 0 0 0-2.89-1.1c-2.26-.51-4.57-.8-6.88-.85-4.84-.12-9.68.06-14.5.54-19.48 1.77-38.89 5.43-58.66 7.1-4.98.44-9.98.6-14.98.46a45.99 45.99 0 0 1-7.63-.88 20.1 20.1 0 0 1-3.85-1.2 10.98 10.98 0 0 1-3.64-2.42 7.34 7.34 0 0 1-2-4.28c-.13-1.44 0-2.9.4-4.3a27.06 27.06 0 0 1 3.33-7.11 91.01 91.01 0 0 1 9.25-11.85c5.9-6.55 12.2-12.67 18.51-18.74l18.97-18.1c6.25-6.08 12.44-12.22 18.07-18.74 2.82-3.19 5.39-6.6 7.67-10.2a27.93 27.93 0 0 0 2.68-5.5c.68-1.67.8-3.52.34-5.27-.56-1.83-2.75-3.07-5.23-3.75a35.75 35.75 0 0 0-7.86-1.19c-5.49-.22-10.98-.06-16.45.5-11.01 1-22 2.82-32.93 4.87-21.86 4.15-43.56 9.3-65.11 14.75-6.72 1.7-9.69 2.21-9.62 1.71.06-.5 3.18-1.98 8.72-4.05a401.58 401.58 0 0 1 57.08-15.83 445.22 445.22 0 0 1 33.9-5.63c5.73-.67 11.48-1.2 17.32-1.34 2.96-.08 5.92 0 8.87.23 3.15.2 6.25.83 9.22 1.89 1.78.64 3.4 1.66 4.73 3 .37.4.7.82 1.02 1.27a9.64 9.64 0 0 1 1.45 4.47c.12 1.82-.12 3.65-.67 5.38a29.28 29.28 0 0 1-1.88 4.45 78.65 78.65 0 0 1-10.48 14.34c-7.7 8.67-16 16.54-24.27 24.4-8.27 7.84-16.62 15.57-24.52 23.64a161.27 161.27 0 0 0-11.21 12.5 54.23 54.23 0 0 0-4.6 6.68 14.2 14.2 0 0 0-2.21 6.59c-.02.77.26 1.52.78 2.09a6.7 6.7 0 0 0 2.56 1.57c2.46.84 5.02 1.33 7.6 1.45 5.58.3 11.17.19 16.73-.34 11.28-.92 22.61-2.55 34-4.04 6.8-.9 13.65-1.8 20.6-2.5 7.04-.85 14.14-1.1 21.22-.74 1.87.14 3.73.44 5.55.9a12.3 12.3 0 0 1 5.61 2.98c3.03 3.6 3.35 7.92 2.87 11.7a39.87 39.87 0 0 1-3.21 10.62 99.07 99.07 0 0 1-4.93 9.57c-7.18 12.31-15.56 23.68-23.08 35.5a163.33 163.33 0 0 0-10.28 18.1 62.38 62.38 0 0 0-3.63 9.51 27.88 27.88 0 0 0-1.16 9.64c.3 7.04 6.24 12.14 12.54 15.88a82.08 82.08 0 0 0 20.98 8.07c7.4 1.8 14.92 3 22.5 3.57 1.91.12 3.8.32 5.72.37l5.72.18c3.81-.03 7.63 0 11.45-.25 3.82-.1 7.62-.54 11.43-.84 3.8-.51 7.6-.87 11.37-1.56a236.08 236.08 0 0 0 22.46-4.74c14.8-4 29.23-9.28 43.11-15.78 2.16-.95 4.26-2.03 6.37-3.1 2.1-1.06 4.23-2.09 6.31-3.2l6.2-3.42c1.03-.57 2.08-1.13 3.1-1.72l3.03-1.82 6.07-3.65 5.94-3.86c4-2.52 7.8-5.31 11.67-8.03a421.56 421.56 0 0 0 43.4-36.47c20.8-19.75 40.32-40.91 59.37-62.41 19.03-21.53 37.56-43.44 56.16-65.08 14.46-16.82 28.86-33.42 43.73-49.55a604.65 604.65 0 0 1 46.82-46.25 301.32 301.32 0 0 1 22.72-18.06 189.48 189.48 0 0 1 19.47-12.27c4.6-2.53 9.35-4.77 14.23-6.68a61.58 61.58 0 0 1 16.7-4.36c1.72-.2 3.46-.3 5.19-.3.89.05.66.33-.56.8-1.22.5-3.45 1.12-6.51 2.17a149.9 149.9 0 0 0-26.98 12.13 211.69 211.69 0 0 0-24.34 16.23 340.54 340.54 0 0 0-22.8 19.06c-14.76 13.4-28.85 27.9-42.64 42.88-27.55 29.99-53.99 61.85-81.15 93.25-20.18 23.32-40.73 46.5-62.63 68.5a580.21 580.21 0 0 1-34.1 31.77c-5.92 5.05-12 9.93-18.22 14.63-3.09 2.38-6.32 4.57-9.49 6.84-3.14 2.31-6.45 4.39-9.7 6.54l-.13-.06Z"/><path fill="#0B2330" d="M412.76 91.36a75.54 75.54 0 0 0-10.01 27 83.99 83.99 0 0 0 .23 29 76.03 76.03 0 0 0 11.5 28.1 59 59 0 0 0 12.63 13.6 51.82 51.82 0 0 0 7.82 4.95 43.8 43.8 0 0 0 35.97 2c10.36-3.95 19.06-11.8 25.12-21a73.26 73.26 0 0 0 8.91-19.31 94.68 94.68 0 0 0 3.77-21c.24-4.43 1.42-3.91 2.5 0a40.87 40.87 0 0 1-.67 19.84 76.8 76.8 0 0 1-9.21 21.24 64.15 64.15 0 0 1-15.69 17.25 51.52 51.52 0 0 1-21.47 9.6c-7.83 1.45-15.9.91-23.47-1.57a56.9 56.9 0 0 1-23.64-15.37 71.08 71.08 0 0 1-14.77-24.13 86.51 86.51 0 0 1 .63-60.6c4.65-11.76 12.2-22.62 22.55-30.17 3.9-2.88 8.2-5.2 12.76-6.89a47.26 47.26 0 0 1 28.62-1.3 50.86 50.86 0 0 1 13.22 5.7 61.44 61.44 0 0 1 16.38 14.73 72.88 72.88 0 0 1 10.77 19.1c1.18 3 2.16 6.08 2.94 9.2a57.52 57.52 0 0 1 1.8 12.68 13.19 13.19 0 0 1-1.73 7.4c-.47.56-.92-.36-1.31-2.45-.41-2.1-.85-5.37-1.6-9.5a76.79 76.79 0 0 0-15.11-34.4c-3.96-5-8.74-9.3-14.15-12.7a44.88 44.88 0 0 0-17.71-6.46c-9.43-1.22-19 .68-27.24 5.43a57.11 57.11 0 0 0-20.23 20.07l-.1-.04ZM358.14 309.94a72.98 72.98 0 0 0 9.43-27.4c1.3-9.74.8-19.62-1.46-29.16a73.6 73.6 0 0 0-7.99-19.77c-6.24-10.85-15.58-20.13-27.1-25.1a46.7 46.7 0 0 0-36.52-.45 54.87 54.87 0 0 0-25 21.6 70.76 70.76 0 0 0-8.59 19.63 91.55 91.55 0 0 0-3.1 21.26c-.07 4.47-1.27 4-2.5.1a40.5 40.5 0 0 1 .03-20.03 74.75 74.75 0 0 1 8.83-21.63 64.78 64.78 0 0 1 15.56-17.63 53.4 53.4 0 0 1 21.4-10.11 50.5 50.5 0 0 1 23.66.56 58.75 58.75 0 0 1 24.78 13.9c7.01 6.59 12.6 14.53 16.43 23.34a83.13 83.13 0 0 1 1.85 61 67.53 67.53 0 0 1-22.23 30.8 51.75 51.75 0 0 1-26.95 10.49c-4.87.4-9.77.1-14.56-.9a54.6 54.6 0 0 1-13.64-4.93A62.91 62.91 0 0 1 273 321.8a71.7 71.7 0 0 1-12.05-18.54c-1.36-2.96-2.52-6-3.48-9.12a56.16 56.16 0 0 1-2.45-12.69 13.26 13.26 0 0 1 1.41-7.52c.44-.59.93.32 1.41 2.41.5 2.1 1.07 5.36 2.04 9.5a74.63 74.63 0 0 0 17.22 33.66 57.52 57.52 0 0 0 15.11 11.83 47.8 47.8 0 0 0 18.3 5.49c4.75.38 9.53.04 14.18-1.03 4.67-1.1 9.13-2.9 13.26-5.34a57.43 57.43 0 0 0 20.1-20.55l.1.04ZM346.27 157.74c-31.11-34.94-64.75-20.6-64.75-20.6l-2.45-15.82-40.19 7.33s3.46-.21 3.9 23.3c.19 10.63 7.66 16.41 15.81 19.55a41.02 41.02 0 0 0 31.07-.96c16.4-7.14 20.31 2.3 37.16 16.53l19.45-29.33Z"/><path fill="#0B2330" d="M255.55 173.35a30.02 30.02 0 0 1-9.96-7.04 21.02 21.02 0 0 1-5.2-11.4c-.14-1.02-.21-2.05-.23-3.08l-.05-2.74c-.03-1.83-.1-3.65-.2-5.47a61.98 61.98 0 0 0-1.3-10.55c-.1-.31-.09-.38-.32-1.07-.1-.14.08-.25.13-.37l.23-.34.47-.7.11-.17c.03-.05 0-.1 0-.14l-.05-.25-.1-.51a7.73 7.73 0 0 0-.2-.76.35.35 0 0 0-.14-.22l.08-.78.16-1.57 6.34-1.16 4.7-.84 30.73-5.22 1.44 10.02.57 4 .12.94c.05.26.03.65.15.8.39-.14.8-.25 1.22-.36l2.76-.65 3.05-.54 3.07-.34c8.7-.77 17.48.38 25.7 3.35a65.11 65.11 0 0 1 27 18.74c2.28 2.56 1.03 2.97-1.78 1.75a29.84 29.84 0 0 1-5.15-3.02 60.49 60.49 0 0 1-6.69-4.63 59.16 59.16 0 0 0-30.23-11.68 63.63 63.63 0 0 0-6.56-.06c-1.1.03-2.2.1-3.28.25-1.1.09-2.18.27-3.26.46-1.1.15-2.14.43-3.21.66-1.01.3-2.1.68-3.13 1-1.03.35-2.12.8-3.14 1.17-.25-1.58-.47-3.27-.7-4.87l-.5-3.61-.68-5.34-.16-1.32-.09-.66a1.52 1.52 0 0 1-.02-.2v-.08l-.07-.78-.6.07-.32.05-1.08.18-4.32.75-8.7 1.56-17.44 3.16-1.84.3-.5.09-.25.04c.07.03.13.07.18.12.16.22.28.47.35.74.03.06.05.13.06.2l.15.53c.13.43.2.84.3 1.26.37 1.68.57 3.32.77 4.96.36 3.28.51 6.53.63 9.78.04 1.59.04 3.3.12 4.79.04 1.46.27 2.9.66 4.31.84 2.8 2.39 5.34 4.5 7.36a29.6 29.6 0 0 0 11.2 6.43 38.44 38.44 0 0 0 13.05 1.9 41.49 41.49 0 0 0 14.7-3.2c1.67-.7 3.38-1.3 5.12-1.8a17.64 17.64 0 0 1 11.1.2 31.46 31.46 0 0 1 9.04 5.94c2.07 1.78 4.03 3.6 6 5.38 1 .89 1.98 1.78 2.98 2.64l1.5 1.3.34.3.22.17.4.33.81.64c.06.03.14.14.19.11l.12-.2.25-.42.48-.8 1.03-1.64 4.25-6.72 3.73-5.9c4.76-7.33 6.56-9.47 8.62-10.36.44-.24.9-.43 1.38-.57 1.26-.17-.05 3.23-3.35 8.71A819.63 819.63 0 0 1 328 190.62l-.5.76c-.06.22-.19-.01-.29-.07l-.32-.28-1.3-1.1-2.61-2.23-1.96-1.68-1.4-1.25-2.8-2.52c-1.84-1.68-3.66-3.38-5.48-4.96-3.65-3.18-7.3-5.88-11.2-6-3.25.03-6.47.78-9.4 2.2a45.95 45.95 0 0 1-11.57 3.24 42.99 42.99 0 0 1-23.65-3.27l.03-.11Z"/><path fill="#0B2330" d="m311.76 265.92-5.47-24.13c-.68-2.93-1.48-5.83-2.14-8.76l-6.92-31.05a415.34 415.34 0 0 0-3.42-13.68l-1.64-6.07-.8-3.05-1.04-4.2 1.7-1.38.82-.65.54-.42c.72-.54 1.45-1.08 2.2-1.6 1.34-.94 1.94-.24 1.75 1.22a8.75 8.75 0 0 1-.88 2.65c-.27.53-.56 1.03-.88 1.53a.46.46 0 0 0 .36.5l.04.01.01.03.05.15.08.31a633.73 633.73 0 0 1 8.09 35.94c1.4 7.26 3.43 14.68 5.15 22.03l5.6 24.29 1.19 5.16.58 2.69 1.85-1.48 8.9-7.26c2.99-2.46 5.97-4.93 8.9-7.42 4.55-3.87 8.84-7.88 13.25-11.82.97-.87 1.89-1.76 2.88-2.62 3.68-3.18 5.07-3.93 6.66-3.66.36.03.72.1 1.07.2.97.43-.05 2.3-2.6 4.8-7.58 7.41-16.05 14.65-24.63 21.83l-19 15.73-2.36-9.78.1-.04ZM406.77 98.94c4.13 2.8 8.25 5.61 12.4 8.4 1.5 1.01 3.09 1.91 4.59 2.94 5.3 3.61 10.56 7.3 15.87 10.89 2.36 1.59 4.8 3.08 7.22 4.53a67.02 67.02 0 0 1 9.17 5.88c1.75 1.47-3.06 3.69-6.62 1.49-6.3-3.9-12.44-8.02-18.41-12.56-3.57-2.7-7.6-5.03-11.41-7.55-4.19-2.78-8.35-5.59-12.53-8.38-2.57-1.72-5.14-3.45-7.72-5.14-3.92-2.57-7.81-5.21-11.77-7.64-3.08-1.9-6.25-3.52-9.37-5.26-.7-.38-1.39-.72-2.07-1.12-2.52-1.5-3.15-2.27-3.02-3.65 0-.3.03-.62.1-.93.27-.95 1.7-.97 3.67-.05a157.6 157.6 0 0 1 17.3 9.83c4.24 2.68 8.44 5.47 12.66 8.22l-.06.1Z"/><path fill="#fff" d="m388.72 65.29-45.08 40.7a8.74 8.74 0 0 1-12.07-.63L322 93.7l18.87-17.11 14.6-14.25 30.78-21.02 5.32.32 6.78 3.9 6.35 4.68-1.31 6.53 2.93 2.15.75 5.23-8.5 9.73"/><path fill="#0B2330" d="m357.54 64.41-.23.16-.03.01-11.93 11.32c-1.02.96-2.01 1.93-3.04 2.87l-3.13 2.76-6.26 5.53-4.6 4.15-2.28 2.09-.43.37-.3.25-.03.03.38.53 1.54 1.94 3.35 4.22 1.68 2.12.84 1.06a6.65 6.65 0 0 0 8.49 1.31c.3-.18.58-.38.86-.6l1.02-.89 2.04-1.78 8.15-7.15c4.83-4.25 9.61-8.62 14.3-12.96 6.03-5.58 11.93-11.35 18.35-16.48 4-3.2 2.17 4.44-4.83 10.82-6.2 5.66-12.46 11.26-18.77 16.8l-9.53 8.28-4.82 4.1-2.42 2.05-.6.5-.83.62a11.33 11.33 0 0 1-13.3-.5 7.4 7.4 0 0 1-.78-.7 6.24 6.24 0 0 1-.67-.71l-1.03-1.27-9.66-11.76 5.16-4.66 12.75-11.3c2.15-1.86 4.2-3.83 6.25-5.8l6.16-5.87 5.03-4.8 11.92-7.98 19.54-13.14 6.12.36 3.2 1.83 3.95 2.22 7.35 5.18-.77 4.3-.13.82-.1.62-.1.7.67.43 2.04 1.44.4 2.42.76 4.52-1.7 2c-4.33 5.06-5.96 6.45-7.82 6.72-.41.1-.83.15-1.26.16-1.13-.14.06-2.7 3.06-6.55l1.8-2.3.92-1.17c.1-.13.12-.2.17-.29l-.1-.26-.22-1.2-.23-1.3-.08-.18-.13-.06a.36.36 0 0 1-.07-.03l-.5-.36-2.83-2 .92-5.03.15-.82.07-.41.01-.1v-.01l-.01-.1-.11-.04-1.55-1.1-3.1-2.21-6-3.4-3.5-.2-.14.1-1.04.7-28.33 19.15-.08-.09Z"/><path fill="#0B2330" d="M395.9 54.86a10.2 10.2 0 0 0-6.66-2.1 5.42 5.42 0 0 0-2.86 1.19l-3.63 2.8c-1.76 1.36-3.44 2.83-5.2 4.18L358.8 75.2a226.03 226.03 0 0 0-8.08 6.6c-3.28 3.01-6.75 5.8-10.4 8.35-2.34 1.5-2.42-4.16 1.52-7.4a348.43 348.43 0 0 1 21.64-16.57c4.48-3.15 8.77-6.88 13.17-10.33l7.34-5.7a9.44 9.44 0 0 1 5.3-1.9c1.77-.08 3.56.2 5.23.8a17.29 17.29 0 0 1 4.18 2.24l1.16.87 4.51 3.43 1.72 1.3.86.65a5.14 5.14 0 0 1 .98 7.71l-.72.8-1.42 1.6-2.8 3.23c-.72.84-1.42 1.69-2.11 2.54-.48.58-1.01 1.24-1.56 1.79l-.2.22c-.08.04-.19 0-.28 0l-.6-.03a12.53 12.53 0 0 1-3.3-.7 7.77 7.77 0 0 1-1.85-.96 5.66 5.66 0 0 1-2.12-2.87c-.11-.4-.2-.8-.24-1.21a8.95 8.95 0 0 1 .55-3.7 6.66 6.66 0 0 1 3.08-3.67 2.31 2.31 0 0 1 2.32 0c.3.13.57.33.8.56.62.83-.4 1.82-1.4 3.4a5.37 5.37 0 0 0-.78 2.86c.03.11.02.23.04.32l.08.21c.2.25.45.45.74.57.39.24 1.42.5 1.2.4.03-.03.05-.02.06-.06v-.06l.1-.11 1.98-2.36 4.05-4.68c.44-.51 1.24-1.4 1.04-1.2.06-.1.08-.2.07-.32a.6.6 0 0 0-.2-.39c-.04-.04-.1-.09-.16-.12l-.23-.18-.92-.7-7.31-5.47.06-.1Z"/><path fill="#0B2330" d="M401.95 57.51c.77-.44 1.49-.97 2.14-1.57a8.9 8.9 0 0 0 2.33-2.88 3.98 3.98 0 0 0 .08-3.55l-.3-.43-.37-.4c-.13-.13-.29-.24-.44-.37l-.35-.28-1.1-.93a181.3 181.3 0 0 0-5.93-4.62 13.31 13.31 0 0 0-12.33-2.95 11.7 11.7 0 0 0-3.47 1.74l-2.72 1.95-5.14 3.72s-9.05 6.33-13.88 9.83c-20.1 14.58-31.34 28.2-20.24 20.55 12.74-8.77 37.72-27.14 37.72-27.14l4.63-3.46 2.25-1.69a6.53 6.53 0 0 1 1.9-1.08c1.41-.5 2.94-.59 4.39-.23.75.18 1.48.45 2.18.8.74.41 1.45.88 2.13 1.39 2.63 1.84 5 3.45 7.04 4.8l.38.25.18.11.07.04c.1.04.19.1.27.16a.69.69 0 0 1 .18.55c0 .12-.01.24-.04.35l-.17.57c-.13.38-.27.74-.42 1.08-1.23 2.75-1.9 4.04-.97 3.69ZM349.8 118.92c3.04-2.66 6.1-5.31 9.12-8 1.1-.97 2.1-2.05 3.22-3.01 3.92-3.41 7.89-6.77 11.79-10.2a98.44 98.44 0 0 0 4.98-4.77 43.97 43.97 0 0 1 6.44-6.02c1.54-1.04 2.92 3.78.5 6.14-4.3 4.22-8.84 8.18-13.6 11.86-2.9 2.2-5.48 4.94-8.23 7.42-3.03 2.72-6.08 5.4-9.12 8.12-1.86 1.66-3.74 3.32-5.6 5-2.8 2.56-5.65 5.07-8.34 7.7-2.09 2.06-3.95 4.26-5.9 6.4-.44.47-.82.96-1.28 1.41-1.67 1.7-2.43 2-3.65 1.46-.28-.1-.56-.23-.82-.38-.82-.53-.66-1.77.41-3.17 3.36-4.2 7.04-8.13 11.02-11.76 2.94-2.8 5.99-5.52 8.98-8.28l.09.08ZM280.74 20.2c-2.2 1.65-4.44 2.33-5.56.18a2.94 2.94 0 0 1 2.22-4.3c2.01.06 6 .12 7.16-.04.03 0 .03.03.01.05a41.53 41.53 0 0 1-3.83 4.1Z"/><path fill="#0B2330" d="M280.8 20.15c.22-.06.44-.16.65-.28a5.78 5.78 0 0 0 1.5-1.21l1.1-1.18c.2-.22.43-.46.63-.7.18-.22.5-.53.42-.64l.01-.23c0-.05.02-.07-.02-.13l-.05-.07a.77.77 0 0 0-.62-.25c-.45.05-.98.07-1.38.08l-.79.02c-1.07.01-2.37-.02-3.43-.03l-.5-.01-.53-.02a5.13 5.13 0 0 0-.76 0 3.49 3.49 0 0 0-2.56 2.24 3.4 3.4 0 0 0 .96 3.81c.34.27.74.46 1.16.54a3.2 3.2 0 0 0 1.96-.36 5.4 5.4 0 0 0 1.18-.8c.6-.53.84-.92.8-1.02-.06-.12-.4.07-1.14.5-.82.46-2.09 1-2.92.51-.45-.3-.77-.75-.9-1.27a2.3 2.3 0 0 1 .1-1.57c.2-.45.5-.85.91-1.13.17-.1.34-.18.53-.22.18-.04.37-.05.55-.03l1.38.02 2.39-.01 1.19-.03.51-.02.1-.02.14-.02c.02.01-.03.05-.04.08.09-.08-.68.82-1.02 1.29l-1 1.28c-.51.64-.77.92-.51.88ZM287 8.88c-1.05-.09-3.13-1.32-2.45-2.81A1.99 1.99 0 0 1 286 4.93a2 2 0 0 1 1.77.52 33.84 33.84 0 0 0 3.6 3.58h-.02l-.01.01c-1.45.09-2.9.03-4.35-.16Z"/><path fill="#0B2330" d="M287.04 8.89c.12.16.27.32.43.46l.26.23c.13.1.26.16.41.2.55.18 1.1.3 1.68.35.71.14 1.45.08 2.13-.16.23-.13.4-.32.5-.57.07-.27.05-.55-.05-.81-.12-.41-.93-1.01-1.48-1.56l-1.37-1.32s-.35-.37-.7-.83l-.14-.19a2.72 2.72 0 0 0-1.2-.87 3.28 3.28 0 0 0-2.8.33 3 3 0 0 0-.93.97 2.38 2.38 0 0 0-.07 2.4 2.7 2.7 0 0 0 2.41 1.22c.64-.05.92-.36.93-.58.01-.24-.05-.37-.46-.58-.24-.13-.47-.3-.67-.49-.19-.2-.28-.4-.26-.42-.01-.02.01-.03.02-.08a.8.8 0 0 1 .67-.45.8.8 0 0 1 .43.05c0 .01 0 0 0 0l.02.02.1.12.35.42c.45.48.72.74.72.74l.21.2h.03l.05.02.14.07.22.12c.1.07 0 .07 0 .1l-.24.15c-.18.1-.38.16-.58.17-.62.12-.9.32-.76.57ZM384.6 137.96c.5-3.76 1.02-7.53 1.5-11.3.17-1.37.2-2.75.39-4.13.66-4.84 1.4-9.67 2.02-14.51.28-2.15.43-4.32.55-6.47-.03-2.77.24-5.53.8-8.25.46-1.68 4.7.89 4.46 4.06-.4 5.65-1.16 11.26-2.27 16.81-.68 3.35-.8 6.9-1.21 10.35-.45 3.8-.94 7.6-1.4 11.39-.3 2.34-.6 4.67-.85 7-.4 3.55-.86 7.1-1.11 10.63-.2 2.74-.12 5.46-.16 8.18-.01.6.02 1.2-.01 1.8-.12 2.23-.5 2.91-1.76 3.28-.29.1-.58.18-.87.24-.96.13-1.67-.85-1.8-2.5a91.38 91.38 0 0 1 .4-15.16c.35-3.8.8-7.61 1.21-11.42h.12ZM342.88 85.64c.16-.24.28-.5.43-.75.62-1.1.5-1.64-.58-2.56-.25-.21-.48-.54-.75-.73a8.98 8.98 0 0 0-.9-1.07c-1.5-1.36-5.56.91-4.98 1.89.77 1 1.67 1.9 2.67 2.67.54.35 1.08.68 1.64.98a1.8 1.8 0 0 0 2.46-.43Z"/><path fill="#fff" d="M339.55 61.77c13.38-3.35 21.3-17.64 17.72-31.9-3.6-14.26-17.35-23.1-30.73-19.75-13.38 3.36-21.31 17.65-17.72 31.9 3.6 14.27 17.35 23.11 30.73 19.75Z"/><path fill="#0B2330" d="M312.8 25.52c-1.5 3.4-2.25 7.1-2.16 10.81a24.8 24.8 0 0 0 7.65 17.41 23.4 23.4 0 0 0 12.73 6.51c2.42.4 4.88.37 7.28-.1a21.06 21.06 0 0 0 15.53-12.2 30.07 30.07 0 0 0 2.08-16.46c-.2-1.74.98-1.9 2.44-.54.42.4.8.84 1.12 1.31.37.6.68 1.23.94 1.89.32.76.53 1.56.63 2.38.07.43.12.88.16 1.34a28.31 28.31 0 0 1-8.43 19.7 25.66 25.66 0 0 1-18.72 7.29 29.74 29.74 0 0 1-11.85-2.96c-3.7-1.8-6.97-4.4-9.53-7.63a30.05 30.05 0 0 1-5.83-25.1 27.95 27.95 0 0 1 7.8-14.06 25.61 25.61 0 0 1 22.77-6.52 28.31 28.31 0 0 1 16.02 9.32 27.4 27.4 0 0 1 2.52 3.32c.56.95 1.07 1.93 1.5 2.94.28.7.5 1.41.66 2.15.2.9.05 1.86-.44 2.65-.17.32-.37.62-.61.88-.4.34-.93.08-1.5-.62-.35-.43-.65-.9-.9-1.38-.41-.61-.78-1.25-1.11-1.91a31.55 31.55 0 0 0-4.35-5.87 27.53 27.53 0 0 0-5.76-4.46 22.19 22.19 0 0 0-14.01-2.83 21.83 21.83 0 0 0-9.87 4.16 22.93 22.93 0 0 0-6.65 8.61l-.11-.03Z"/><path fill="#fff" d="M352.2 23.18s12.77-2.73 15.56 2.6c5.34 10.19-11.83 9.84-11.83 9.84"/><path fill="#0B2330" d="M365.8 29.9c.23-.33.33-.73.28-1.13a6.08 6.08 0 0 0-.49-1.9c-.08-.13-.17-.25-.24-.39-.16-.09-.29-.21-.4-.35a9.51 9.51 0 0 0-5.37-1.96c-1-.09-1.99-.04-2.97.13a10.7 10.7 0 0 1-3.8.45c-.39-.08-.63-1.25-.49-2.45.14-1.2.65-2.43 1.48-2.57 3-.57 6.11-.35 9 .65l1.4.48c.49.15.97.33 1.44.53a7.67 7.67 0 0 1 2.83 1.85c.44.5.82 1.06 1.13 1.66.22.5.4 1.02.57 1.54a8.1 8.1 0 0 1 .33 3.55 6.24 6.24 0 0 1-2.3 3.9 14.54 14.54 0 0 1-5.35 2.34c-1.37.38-2.68.9-4.06 1.22-.3.1-.6.16-.9.22-1.15.14-1.55-.18-1.8-1.4a8.23 8.23 0 0 1-.14-.84 1.91 1.91 0 0 1 1.04-2.03c2.14-.92 4.37-1.33 6.2-2a4.8 4.8 0 0 0 2.5-1.53l.12.04Z"/><path fill="#F9C600" d="m304.35 45.18 45.28-32.17s-17.95-16.93-38.38-2.75c-15.87 11-6.9 34.92-6.9 34.92Z"/><path fill="#0B2330" d="M324.07 2.07a29.8 29.8 0 0 1 11.27.73c3.59.94 7.02 2.4 10.19 4.33.58.33 1.13.71 1.7 1.07.44.27.86.56 1.27.88l1.3.98c.9.64 1.6 1.35 2.4 2.03l.56.51.3.27.14.13.07.07c0 .02-.04.04-.06.06l-1.2.96c-1.31 1.12-3.04 2.24-4.57 3.3l-2.76 1.85-5.53 3.7-11.04 7.42c-3.26 2.2-6.46 4.54-9.6 6.86a128.09 128.09 0 0 1-12.3 8.67c-2.73 1.56-2.08-4.36 2.6-7.74 8.3-6 16.76-11.76 25.55-17.23 2.63-1.63 5.22-3.42 7.8-5.25l3.1-2.19.63-.44c.03-.04.16-.07.1-.11l-.13-.13-.29-.25c-.21-.18-.41-.35-.69-.54a27.3 27.3 0 0 0-2.06-1.3c-.7-.44-1.42-.8-2.16-1.17a29.52 29.52 0 0 0-11.74-3.18c-4.05-.18-8.08.61-11.75 2.32a27.2 27.2 0 0 0-4.1 2.18 18.05 18.05 0 0 0-3.64 2.72 18.76 18.76 0 0 0-4.77 7.59 29.35 29.35 0 0 0-.6 13.95c.16 1.03.4 2.02.62 3.05.83 3.8 1 5 .07 6.21-.18.29-.38.56-.6.82-.75.7-2.15-.67-3.15-3.62a38.53 38.53 0 0 1-2.05-14.18 26.18 26.18 0 0 1 5.1-14.61 23.02 23.02 0 0 1 4.23-4.24l1.2-.88 1.21-.73 2.45-1.45c.84-.45 1.7-.85 2.6-1.2l1.31-.57.66-.28.7-.2 2.78-.79c.94-.21 1.9-.38 2.85-.49l.03.11ZM348.31 32.99a2.84 2.84 0 1 0 0-5.68 2.84 2.84 0 0 0 0 5.68Z"/><path fill="#0B2330" d="M351.15 30.1c.09-.16.14-.34.16-.51a2.1 2.1 0 0 0-.53-1.72 3.1 3.1 0 0 0-1.41-.96 3.36 3.36 0 0 0-3.67 1.03 3.4 3.4 0 0 0-.68 1.3 3.45 3.45 0 0 0 1.1 3.58 3.17 3.17 0 0 0 3.65.26 2.66 2.66 0 0 0 1.3-2.05c.02-.58-.17-.87-.27-.88-.13-.02-.17.23-.34.7a2.31 2.31 0 0 1-2.48 1.48 2.24 2.24 0 0 1-1.78-2.9 2.3 2.3 0 0 1 2.84-1.5 2.74 2.74 0 0 1 1.71 1.55c.21.5.28.78.4.62ZM344.79 45.46c-.14.3-.17.63-.09.94.23 1.46 1.7 2.09 4.19 1.63.56-.08 1.34-.16 1.72-.27l.72-.02 1.21-.01a6.38 6.38 0 0 0 3.61-1.94 6.7 6.7 0 0 0 1.17-1.33.85.85 0 0 0-.03-.66.84.84 0 0 0-.51-.42 10.72 10.72 0 0 0-4.48-.62 14.6 14.6 0 0 0-3.35.58l-.65.2c-.44.14-.86.24-1.26.35-.52.08-1 .3-1.4.64-.06.07-.13.14-.18.22-.04.03-.06.08-.09.12-.05.06-.11.15-.17.2l-.17.18-.04.03h-.02v.01l.15-.12v.01a.27.27 0 0 1-.06.07c-.09.07-.21.1-.27.21ZM371.93.67a3.37 3.37 0 0 1 5.08 1.92c.68 2.55-1.33 3.55-3.07 3.55-2.94.03-5.89-.13-8.81-.48-.06 0-.06-.08-.01-.11 1.26-.92 5.43-3.92 6.81-4.88Z"/><path fill="#0B2330" d="M371.87.72a12.53 12.53 0 0 0-3.06 1.56c-.54.34-1.19.78-1.97 1.33-.1.2-3.95 2.17-1.53 2.63.5.09 1.37.16 1.57.18l1.04.1c.7.06 1.4.1 2.02.13l2 .08 1.77.03a5.1 5.1 0 0 0 1.82-.25c.56-.18 1.06-.5 1.46-.94.39-.43.63-.97.7-1.55a3.94 3.94 0 0 0-.78-2.71 3.4 3.4 0 0 0-3.63-1.17c-.9.28-1.19.75-1.14.83.06.13.36-.1 1.26-.22a2.74 2.74 0 0 1 2.99 3.52 2.07 2.07 0 0 1-1.39 1.1c-.64.15-1.3.2-1.95.16l-1.74-.02-1.59-.05-1.8-.1-.9-.07-.36-.03h-.18c-.03-.03.03-.05.05-.07l.05-.05.16-.12.72-.53c3.25-2.41 4.98-3.88 4.4-3.77ZM383.9 12.87c1.26-.04 3.75 1.8 2.77 4.06-.95 2.18-3.24 1.1-3.92-.02-.89-1.48-5.02-2.45-5-3.75a446 446 0 0 1 6.15-.29Z"/><path fill="#0B2330" d="M383.84 12.87a7.98 7.98 0 0 0-2.7-.39c-.52 0-1.13 0-1.9.03l-.85.04-.62.03-.37.16-.19.08-.09.04.02.14.1.5c.05.18.14.35.24.5l.5.5.3.21.19.12.36.22.74.4 1.38.73.37.23c.27.17.52.37.74.6.06.06.1.12.14.18l.24.34a3.55 3.55 0 0 0 2.05 1.24c.51.1 1.04.03 1.5-.2.42-.24.76-.59.99-1 .4-.7.5-1.53.28-2.3a3.35 3.35 0 0 0-2.24-2.14c-.73-.2-1.11 0-1.1.1-.02.13.2.13.84.47a2.74 2.74 0 0 1 1.5 2.2c0 .48-.19.95-.5 1.32a1.1 1.1 0 0 1-1.14.3 2.34 2.34 0 0 1-1.3-.87l-.26-.35c-.17-.2-.36-.37-.56-.52a7.33 7.33 0 0 0-1.15-.73l-1.3-.67-.63-.32-.5-.29c-.03-.01-.13-.07-.12-.13l.1-.02.06-.01.33-.02c3.2-.22 4.97-.5 4.55-.72ZM489.35 108.82c.05-.5.07-.99.03-1.48 0-.65-.07-1.29-.2-1.91-.25-.9-.57-1.77-.94-2.62a38.06 38.06 0 0 0-5.57-8.77c-.69-.89-1.55-1.79-2.35-2.73-.85-.9-1.75-1.75-2.56-2.52 0 0-1.15-1.05-2.68-2.32-.8-.6-1.66-1.27-2.54-1.88l-2.5-1.55a27.94 27.94 0 0 0-9.04-3.11c-2.2-.33-4.44-.3-6.64.09-3.16.72-3.5 1.6-.07 1.87a36.75 36.75 0 0 1 19.4 8.14l1.49 1.23a48.95 48.95 0 0 1 8.38 9.53c.9 1.44 1.77 2.67 2.4 3.8.7 1.11 1.28 2.04 1.72 2.77.92 1.45 1.52 2.01 1.67 1.46ZM423.32 158c0 .5.05.99.13 1.48.07.64.22 1.26.43 1.87.34.86.75 1.7 1.22 2.49 1.79 2.98 3.98 5.7 6.52 8.1.78.8 1.74 1.6 2.64 2.44.95.8 1.94 1.54 2.82 2.22 0 0 1.27.91 2.93 2 .86.5 1.8 1.09 2.74 1.59l2.66 1.26a27.94 27.94 0 0 0 9.33 2.08c2.22.07 4.45-.2 6.59-.84 3.06-1.07 3.3-1.98-.14-1.86a36.76 36.76 0 0 1-20.2-5.92l-1.61-1.06a49.07 49.07 0 0 1-9.4-8.53c-1.06-1.32-2.06-2.45-2.83-3.5-.8-1.03-1.49-1.88-2-2.56-1.08-1.33-1.74-1.83-1.82-1.26ZM362.33 250.9s24.74 3.13 37.72-3.51c13.26-6.78 13.59-9.52 8.7-12.38-9.5-5.56-27.94.95-27.94.95s-5.87 9.98-14.09 3.02c-8.21-6.96-4.4 11.92-4.4 11.92Z"/><path fill="#0B2330" d="M392.55 230.3c3.3-.38 6.64-.36 9.94.07.85.09 1.7.34 2.55.5.84.2 1.7.54 2.53.81.83.35 1.65.8 2.46 1.22.9.53 1.72 1.17 2.45 1.92.67.7 1.17 1.55 1.43 2.49.2.94.11 1.93-.26 2.82-.17.45-.4.89-.7 1.28-.13.2-.29.41-.43.6l-.37.4c-.47.49-.97.95-1.52 1.36a40.29 40.29 0 0 1-5.39 3.33c-.9.47-1.81.95-2.72 1.38l-1.37.66c-.46.22-.98.42-1.47.62a45.29 45.29 0 0 1-12.11 2.81c-3.6.4-7.2.66-10.75.77-4.57.32-9.17.09-13.69-.69-1.42-.31-1.05-1.47.24-2.49a9.35 9.35 0 0 1 6.02-1.84c4.48.19 8.96.24 13.39.02 4.38-.15 8.74-.74 13-1.77l.94-.25.89-.34c.6-.25 1.18-.43 1.8-.75a66.6 66.6 0 0 0 3.69-1.92c1.2-.68 2.36-1.4 3.45-2.15.52-.38 1.08-.76 1.52-1.16.23-.17.44-.37.63-.57l.29-.28.13-.16a.88.88 0 0 0 .25-.72c-.06-.27-.2-.52-.43-.69-.48-.4-1-.75-1.57-1.04-.58-.33-1.2-.6-1.83-.83a23.95 23.95 0 0 0-8.53-1.15c-3.72.1-7.43.6-11.05 1.5-.8.19-1.59.38-2.38.6l-1.18.33c-.23.06-.45.13-.68.22-.55.78-1.18 1.52-1.87 2.2a12.6 12.6 0 0 1-2.74 2.1 9.7 9.7 0 0 1-3.38 1.2 8.7 8.7 0 0 1-3.63-.29l-.94-.29-.86-.42-.85-.42-.76-.53-1.22-.83a3.15 3.15 0 0 0-.74-.35 1.02 1.02 0 0 0-.75.01.97.97 0 0 0-.45.6c-.07.24-.1.49-.11.73l-.01 1.06c.01.88.13 1.77.2 2.69.37 3.44.34 4.59-.75 5.56-.23.24-.47.46-.74.66-.85.53-1.96-.8-2.58-3.53a33.35 33.35 0 0 1-.7-4.76 16 16 0 0 1 .04-2.43l.08-.7c.09-.46.2-.92.33-1.36.27-.84.71-1.62 1.3-2.28a4.29 4.29 0 0 1 2.25-1.22 5.07 5.07 0 0 1 2.6.16c.46.14.9.34 1.3.58.44.22.86.49 1.25.8l.6.43.32.21.49.34.48.35.49.22.47.25c.16.06.31.08.46.13a4.09 4.09 0 0 0 3.51-.48 10.8 10.8 0 0 0 2.6-2.3c.49-.62.94-1.27 1.34-1.94l1.47-.5.72-.22.4-.12 1.57-.45a68 68 0 0 1 9.61-1.88l.03.12Z"/><path fill="#51CEBC" d="m388.88 156.4 4.27 3.28a.71.71 0 0 1 .28.52.71.71 0 0 1-.22.55l-17.4 16.44a.7.7 0 0 1-.99-.02l-4.62-4.89a.7.7 0 0 1 .05-1.02L388 156.41a.7.7 0 0 1 .88-.02Z"/><path fill="#0B2330" d="M373.9 172c-.02.05 0 .09.01.15.07.12-.12-.03.47.64l.64.74c.04.06.08.12.1.19.07.13.15.25.25.35.15.07.23-.07.36-.12l.03-.02.16-.13.53-.52c.43-.4.85-.82 1.3-1.2l9.56-8.07a37.35 37.35 0 0 0 3.26-3.13c.13-.2.42-.36.26-.64-.21-.17-.44-.32-.67-.46l-.28-.2-.38-.34c-.44-.38-.85-.79-1.22-1.23-.5-.57.31-1.45 1.51-1.98a5.2 5.2 0 0 1 2.5-.44c.2 0 .4.07.58.17a9.9 9.9 0 0 1 1.68 1.02l.52.4a3.8 3.8 0 0 1 1.46 2.39 3.87 3.87 0 0 1-.51 2.65c-.31.47-.7.88-1.13 1.24l-1.29 1.19-.84.74-.66.58c-1.8 1.53-3.65 3-5.59 4.4-2.37 1.72-4.42 3.94-6.64 5.9l-2.33 2.1c-.35.3-.74.56-1.16.74-.38.2-.81.27-1.24.23a2.59 2.59 0 0 1-1.15-.47c-.4-.27-.75-.58-1.06-.94l-3.27-3.68-.32-.35a4.83 4.83 0 0 1-.94-1.64c-.08-.31-.08-.64.02-.95.1-.28.25-.54.44-.77.43-.54.93-1.01 1.5-1.4l1.41-1.14c2.38-1.9 4.82-3.75 7.09-5.74 1.77-1.54 3.32-3.26 4.97-4.9.36-.37.69-.76 1.07-1.1a4.3 4.3 0 0 1 1.7-1.12l.19-.03c.1 0 .19-.03.27-.08.25-.1.53-.14.8-.1a1.11 1.11 0 0 1 .9.7 1.08 1.08 0 0 1-.21 1.2l-.1.12.73.87-.01.02-.01.02-.04.1c-.14.3-.32.57-.52.83-2.8 3.3-5.9 6.31-9.29 9.01-2.23 1.89-6.13 4.98-5.25 4.2h-.15Z"/><path fill="#0B2330" d="M360.75 176.08s20.06-6.46 27.25-18.37c7.36-12.16 6.25-14.56.84-14.43-10.52.26-19.84 9.82-19.84 9.82s-2.07 11.91-12.25 10.38c-4.92-.73-1.53 1.42.17 4.84l3.83 7.76Z"/><path fill="#0B2330" d="M373.61 145.74a36.11 36.11 0 0 1 8.22-3.8c1.49-.45 3.01-.78 4.55-.97.79-.08 1.58-.1 2.37-.15l1.25.04.77.09c.28.03.55.09.82.17a4.87 4.87 0 0 1 3.76 3.2c.1.41.18.84.23 1.27l-.04 1.32c-.09.68-.25 1.34-.47 1.99a31.04 31.04 0 0 1-2.5 5.24 90.78 90.78 0 0 1-2.89 4.69 33.15 33.15 0 0 1-7.96 8.1 87.7 87.7 0 0 1-8.2 5.37 42.19 42.19 0 0 1-11.38 5.04c-1.31.29-1.47-.91-.86-2.34a8.09 8.09 0 0 1 4.01-4.08 87.24 87.24 0 0 0 10.5-5.53 41.13 41.13 0 0 0 9-7.23 34.74 34.74 0 0 0 3.94-6.07c.57-1.06 1.09-2.15 1.55-3.27.24-.55.39-1.06.56-1.58l.15-.6.05-.35a.86.86 0 0 0-.23-.65c-.2-.17-.45-.27-.71-.29a14.7 14.7 0 0 0-3.53.1c-2.59.4-5.1 1.2-7.43 2.4a38.53 38.53 0 0 0-8.23 5.54l-.31.28c-.09.07-.17.15-.24.23l-.13.5-.29.94a17.1 17.1 0 0 1-2.74 5.2 11.3 11.3 0 0 1-6.8 4.3l-1.28.13c-.33.02-.56 0-.82 0-.5.04-1-.13-1.32.2-.04.28.22.51.37.72l.52.58c.4.42.74.9 1 1.41.43.77.9 1.5 1.3 2.29 1.53 2.91 1.72 3.99.93 5.16-.16.28-.35.54-.55.79-.71.7-2.01-.16-3.33-2.19l-1.44-2.28-1.48-2.46a30.97 30.97 0 0 1-2.7-4.16 3.92 3.92 0 0 1-.29-1.66 3.2 3.2 0 0 1 .54-1.55 3.35 3.35 0 0 1 3.07-1.4h2.63l1.9-.02a.7.7 0 0 0 .33-.05l.22-.06.44-.12a7 7 0 0 0 2.34-1.47 13.08 13.08 0 0 0 2.66-4.43c.11-.3.2-.59.29-.88l.06-.22.13-.5.23-1.1c.46-.45.92-.92 1.4-1.36l.84-.74c.55-.46 1.1-.92 1.66-1.35 1.12-.88 2.3-1.7 3.5-2.47l.06.1ZM284.42 230.8a7.98 7.98 0 0 0-4.35 2.77 34.05 34.05 0 0 0-4.7 7.23 45.82 45.82 0 0 0-2.42 5.42l-.32.78-.7 1.95a44.75 44.75 0 0 0-1.35 4.8c-1.04 4.36-.92 8.9.33 13.19.91 2.56 1.81 2.86 1.88-.07a62.94 62.94 0 0 1 1.5-12.51 54.09 54.09 0 0 1 2.13-7.25 51.67 51.67 0 0 1 4.23-9.01c1.43-2.4 2.65-4.22 3.38-5.44.73-1.22.9-1.9.4-1.86ZM242.82 270.54c-.3.19-.6.4-.85.66-.8.7-1.35 1.63-1.62 2.66a24.3 24.3 0 0 0-.94 6.69c-.06 1.54-.02 3.1.12 4.63 0 0 0 .25.03.67l.15 1.6c.14 1.3.36 2.6.65 3.86.72 3.45 2.46 6.6 5 9.05 1.66 1.4 2.56 1.2 1.67-.86a49.94 49.94 0 0 1-3.06-9.18c-.44-1.88-.75-3.8-.92-5.72a40.4 40.4 0 0 1-.1-7.65c.36-4.26.78-6.72-.13-6.4ZM232.83 281.46c-.25.06-.5.14-.73.26-1.04.41-1.75 1.46-1.87 4.92-.04.84-.02 1.67.06 2.5a16.73 16.73 0 0 0 .39 3.32 6.67 6.67 0 0 0 3.41 4.53c1.24.55 2.07.22 1.68-.83a36.25 36.25 0 0 1-1.46-4.6c-.22-.95-.39-1.9-.5-2.85a22.02 22.02 0 0 1-.2-3.82c.08-2.13.01-3.47-.78-3.43ZM346.66 301.95a7.98 7.98 0 0 0 4.33-2.8 33.99 33.99 0 0 0 4.68-7.25 45.83 45.83 0 0 0 2.38-5.44l.32-.78.68-1.95c.53-1.58.97-3.19 1.32-4.82 1.02-4.35.88-8.9-.4-13.18-.92-2.55-1.82-2.84-1.87.08a62.47 62.47 0 0 1-1.42 12.52 54 54 0 0 1-2.1 7.26 51.7 51.7 0 0 1-4.18 9.04c-1.42 2.4-2.63 4.23-3.35 5.46-.73 1.22-.9 1.9-.39 1.86Z"/><path fill="#0B2330" d="M377.81 210.46a149.23 149.23 0 0 1 3.83 20.82l.18 1.93c.08.5.1 1.01.05 1.52l-.74 1.33c-.35.6-.63 1.13-.99 1.69l-1.21 1.6a11.41 11.41 0 0 1-5.24 3.7c-2.2.6-4.56.37-6.6-.67-.8-.4-1.57-.87-2.28-1.4-.35-.27-.7-.53-1.01-.83-.17-.15-.33-.28-.49-.44l-.53-.53a7.78 7.78 0 0 1-.62-.72l-.38-.92-.4-1.04-.78-2.07-1.57-4.12c-.53-1.37-1.14-2.7-1.7-4.07l-1.75-4.05-1.9-3.97c-1.23-2.68-2.68-5.23-4.06-7.82a93.96 93.96 0 0 0-8.74-12.88 79.67 79.67 0 0 0-14.04-13.5c-.8-.57-.96-.99-.75-1.4.18-.43.9-.75 2-.77 3.29.2 6.4 1.59 8.73 3.93 10.51 9.96 17.47 22.43 23 35.28.78 1.94 1.6 3.9 2.44 5.84.86 1.95 1.58 3.96 2.4 5.94l1.2 2.98c.06.21.2.4.37.51.33.32.67.6 1.03.87a6.86 6.86 0 0 0 4.4 1.64 6.28 6.28 0 0 0 4.21-2.83 8 8 0 0 0 .87-1.26l.4-.7.2-.32c-.02-.9-.09-1.8-.23-2.69-.53-4.56-1.3-9.09-2.29-13.57-1.2-5.54-2.74-11-4.6-16.35A110.54 110.54 0 0 0 359.17 178a81.26 81.26 0 0 0-12.57-14.88c-1.02-1-2.14-1.84-3.2-2.81-4.03-3.44-5.27-4.56-5.47-6.27a5.8 5.8 0 0 1-.13-1.15c.06-.54.65-.64 1.67-.32a15 15 0 0 1 4.13 2.24c10 7.09 18.23 17.52 24.11 28.93a131.1 131.1 0 0 1 10.2 26.69l-.1.04Z"/><path fill="#C9316F" d="M283.18 51.44c-30.28 18.58-69.45 59.92-41.1 115.17l52.11-34.94 16.1-47.7a2.33 2.33 0 0 1 3.25-1.34c.4.2.73.5.96.87 2.5 3.91 5.61 7.4 9.2 10.34l17.16-17.24s-22.9-46.51-57.68-25.16Z"/><path fill="#0B2330" d="m304.56 109.99-8.12 23.4-27.32 18-16.89 11.28-8.68 5.72-1.6 1.06-.8.52-.41-.88-1.65-3.49-1.23-2.61c-.34-.68-.59-1.4-.88-2.1a84.12 84.12 0 0 1-5.26-17.52 73.54 73.54 0 0 1 2.25-36.21 92.26 92.26 0 0 1 15.3-28.28c4.2-5.42 8.9-10.46 14.02-15.04 5.09-4.6 10.6-8.68 16.49-12.21 3.7-2.15 3.8-.8 1.43 2.05-3.94 4.44-8.2 8.57-12.76 12.36-5.1 4.37-9.82 9.15-14.13 14.3a97.1 97.1 0 0 0-11.1 16.59 77.7 77.7 0 0 0-6.83 18.66 71.28 71.28 0 0 0-1.37 19.9c.67 8.2 2.7 16.22 6 23.75a34 34 0 0 0 1.27 2.85l.54 1.12.1.23.22-.14.43-.29 1.95-1.3 10.64-7.1 36.5-24.1 3.63-10.52 11.23-32.61 1.19-3.47c.21-.67.56-1.3 1.02-1.83a3.76 3.76 0 0 1 5.52.04l2.14 3.03a40.05 40.05 0 0 0 3.85 4.5c.34.36.7.71 1.05 1.05l.65.6.64.56c.06.1.1-.03.16-.06l.14-.15.3-.3 1.69-1.67 8.66-8.65 4.04-4.07c.2-.2.43-.4.6-.62l-.42-.76-.56-.99-.77-1.28a70.03 70.03 0 0 0-12.38-15.12 39.94 39.94 0 0 0-16.35-9.39 28.53 28.53 0 0 0-8.07-.83c-3.62.23-7.2.93-10.63 2.07-.94.35-1.91.61-2.9.8-.69.2-1.4.3-2.12.32-.59.06-1.18.07-1.77.04-.71-.15-.2-.94 1.42-2.24a25.8 25.8 0 0 1 8.57-4.25 31.4 31.4 0 0 1 19.23.4A45.97 45.97 0 0 1 328.9 55.5a76.9 76.9 0 0 1 13.4 17.2l.47.82.55 1.03c.37.68.7 1.37 1.05 2.05l.26.52c-.05.15-.24.28-.35.42l-.78.84c-.51.56-1.1 1.11-1.63 1.67L340 81.94l-6.64 6.68-5.45 5.47c-.9.88-1.8 1.86-2.7 2.63l-1.34 1.22c-.48-.3-.96-.73-1.44-1.1a43.72 43.72 0 0 1-2.86-2.42l-.9-.86-.72-.72a45.93 45.93 0 0 1-5.18-6.28c.03-.01-.06-.07-.08 0L304.67 110l-.11-.01ZM333.3 13.25c-.24-.26-.51-.49-.8-.68a5.52 5.52 0 0 0-2.9-1.06 29.8 29.8 0 0 0-2.75.02c-.61.05-1.22.14-1.83.29-.73.12-1.45.29-2.16.52l-2.25.77a51.68 51.68 0 0 0-2.71 1.4l-1.4.9c-.58.37-1.13.8-1.64 1.26l-.78.66-.63.66a14.44 14.44 0 0 0-3.22 5.24c-.51 1.35-.75 2.8-.7 4.24.06 1.07.36 1.7.69 1.8.33.11.65-.2 1.08-1.2a32.82 32.82 0 0 1 2.02-3.85 23.3 23.3 0 0 1 2.94-3.76c.88-.93 1.86-1.75 2.91-2.47a19.6 19.6 0 0 1 8.06-3.27c1.02-.1 1.93-.26 2.72-.4.68-.02 1.35-.1 2-.21 1.08-.2 1.59-.5 1.34-.86ZM352.53 19.95a80.43 80.43 0 0 1-22.32 6.61l17.57-11.5 4.75 4.89Z"/><path fill="#0B2330" d="M352.45 19.84a8.25 8.25 0 0 0-.36-1.57 7.5 7.5 0 0 0-1.21-2.63 6.52 6.52 0 0 0-.57-.76c-.62-.75-1.36-1.6-2.23-2.57l-2.81 1.72-2.05 1.26c-1.33.84-2.87 1.84-4.68 3.05-1.85 1.23-4.11 2.62-5.92 3.85l-3.74 2.36-8.07 5.09 9.7-.7c1.72-.16 3.43-.43 5.12-.78a32.37 32.37 0 0 0 14.65-7c1.23-1.14 1.8-2.07 1.61-2.5-.14-.44-.96-.4-2.65.23a115.1 115.1 0 0 1-10.65 3.45 82.56 82.56 0 0 1-8.7 1.8l1.65 4.46 4.1-2.72A989.4 989.4 0 0 0 346 18.6l.75-.53.35-.26.08-.08.33-.34.43.22c.05.02.1.05.15.1l.3.24.56.45c.6.47 1.22.91 1.87 1.31 1.03.61 1.6.68 1.62.13Z"/><path fill="#0B2330" d="m308.89 44.1 17.57 11.08c11.67-2.8 4.32-17.83 4.32-17.83l-3.31-8.78-18.58 15.53Z"/><path fill="#0B2330" d="M309.05 43.99a21.86 21.86 0 0 0 8.08-4.07c1.34-.98 2.93-2.21 4.86-3.78l3.18-2.62 1.14-.95.14-.13 2.17 5.82.43.95a25.67 25.67 0 0 0 1.28 4.48c.25 1.26.32 2.56.21 3.85-.07 1-.38 1.99-.9 2.86a5.13 5.13 0 0 1-1.8 1.69c-.2.11-.4.22-.6.3l-.32.15c-.06.03-.06.05-.06.05a.12.12 0 0 1-.05.05.11.11 0 0 1-.07.01L324 51.2c-.96-.5-1.9-.98-2.8-1.42a75.43 75.43 0 0 0-9.01-3.82c-4.57-1.51-5.83-.9-1.25 2.17 2.63 1.76 5.95 3.91 9.45 6.15l2.66 1.69 1.54.98 1.34.83.17.1.19-.05.38-.11.75-.22a11.38 11.38 0 0 0 2.25-.8 9.64 9.64 0 0 0 4.44-4.05 12.48 12.48 0 0 0 1.42-6.72c-.1-1.69-.39-3.36-.85-5-.3-1.06-.66-2.1-1.07-3.12l-.48-1.13-.08-.18-.05-.08-1.71-4.29-2.84-7.24-5.82 5-3.38 2.97c-7.88 6.94-11.86 11.3-10.2 11.14Z"/><path fill="#fff" d="M327.72 43.82a5.01 5.01 0 1 0 0-10.03 5.01 5.01 0 0 0 0 10.03Z"/><path fill="#fff" d="M332.26 36.67a4.03 4.03 0 0 0-2.38-2.94 5.25 5.25 0 0 0-2.78-.47 5.55 5.55 0 0 0-4.9 6.42 5.36 5.36 0 0 0 .83 2.21c.76 1.15 1.9 2 3.24 2.36a5.35 5.35 0 0 0 5.67-2 4.82 4.82 0 0 0 .81-4.01c-.27-.96-.7-1.37-.79-1.35-.14.03.06.45.17 1.46a4.5 4.5 0 0 1-3.23 4.68 4.42 4.42 0 0 1-4.63-7.04 4.54 4.54 0 0 1 5.18-1.4 4.9 4.9 0 0 1 1.89 1.22c.69.74.91 1.18.92.86Z"/><path fill="#0B2330" d="M335.43 50.76a41.19 41.19 0 0 1-2.72-5.68c-.28-.7-.65-1.35-.9-2.06a71.67 71.67 0 0 1-1.89-7.57 34.75 34.75 0 0 0-.9-3.29 9.47 9.47 0 0 1-.83-4.3c.08-.5 1.27-.6 2.47-.42 1.2.17 2.42.6 2.6 1.36.66 2.73 1.14 5.5 1.43 8.3.32 1.69.85 3.33 1.6 4.89.64 1.76 1.4 3.48 2.28 5.14a23.16 23.16 0 0 0 1.82 2.9c.97 1.39 2.2 2.58 3.63 3.5 1.1.57 2.32.9 3.56.96.27 0 .53-.03.79 0 .94.08 1.21.34 1.4 1.61.05.28.12.57.15.85a1.65 1.65 0 0 1-1.45 1.91 11.22 11.22 0 0 1-8.78-2.91 22.6 22.6 0 0 1-4.36-5.12l.1-.07ZM386.27 78.82c.25.15.52.28.8.39 1.2.55 1.9.3 3.4-1.27.34-.36.83-.71 1.15-1.09.56-.42 1.1-.87 1.62-1.35 2.17-2.18.58-6.83-.83-5.9-1.5 1.2-2.9 2.5-4.18 3.94-.6.74-1.2 1.5-1.75 2.26-.94 1.3-1.03 2.48-.21 3.02ZM258.17 94.02c-.47.18-.92.4-1.35.67a9.56 9.56 0 0 0-3.51 3.24 21.57 21.57 0 0 0-2.28 3.66c-.4.77-.86 1.62-1.28 2.57l-1.25 3.2a58.16 58.16 0 0 0-2.03 6.95l-.26 1a69.44 69.44 0 0 0-1.48 8.44c-.65 5.35-.2 10.78 1.3 15.97.53 1.55 1.07 2.4 1.41 2.4.36.01.5-.76.46-2.58-.15-5.22.04-10.45.58-15.65.18-1.3.29-2.53.48-3.64l.5-2.94c.33-1.65.58-2.66.58-2.66.83-4 2.12-7.9 3.86-11.6.65-1.6 1.47-2.86 2.07-4.03.57-1.2 1.23-2.06 1.65-2.82.86-1.49 1.1-2.3.55-2.18ZM340.22 106.4l-10.37 31.93-29.82 8.63-8.2-4.75 8.2-25.88 40.2-9.92Z"/><path fill="#0B2330" d="m298.52 130.63-2.11 6.18-1.06 3.1-.24.7-.06.13-.13.28.32.23c-.06-.02.39.25.67.42l.93.56 3.35 2.03.16.1.74-.2 1.72-.5c1.14-.34 2.3-.68 3.45-.98l22.2-5.78.16-.43.23-.64.69-1.96c1.35-3.91 2.6-7.89 3.8-11.82 1.36-5.1 3.02-10.13 4.95-15.05 1.3-3.03 4.25 2.3 2.42 8.1a588.42 588.42 0 0 1-6.07 18.08l-1.08 3-.57 1.57-.98 2.81-3.09.82-1.7.4-3.4.79c-6.36 1.44-12.8 3.52-19.23 5.28l-4.83 1.33-10.2-6.09 3.12-9.34 4.28-12.8 1.93-5.84 8.17-1.93c2.45-.58 4.89-1.19 7.31-1.8 5.1-1.31 10.03-2.86 15.04-4.3 1.1-.33 2.16-.68 3.28-.98 4.14-1.1 5.54-1.13 6.73-.15a5 5 0 0 1 .79.66c.63.83-.88 2-3.86 3.03-8.83 3.03-18.33 5.5-27.89 7.87l-3.83.94-1.92.46-.2.05-.02-.01-3.86 11.7-.1-.03ZM384.58 169.45c-.26.2-.5.45-.73.7-1.06 1.07-1.14 2.4-.35 6.35.18.9.3 2 .5 2.9 0 0 .28 2.53.53 3.88 1.05 5.64 6.12 8.73 5.88 5.63-.28-3.57-1.78-10.55-1.78-10.55-.42-1.72-.86-3.44-1.33-5.12-.79-2.86-1.85-4.34-2.72-3.8ZM391.5 209.15c-.28.28-.52.59-.72.92-1.04 1.38-1.09 3.2-.2 8.8.21 1.28.35 2.82.58 4.08 0 0 .35 3.56.64 5.47 1.2 7.96 6.4 12.78 6.08 8.43-.37-5-2.07-14.86-2.07-14.86-.47-2.45-.95-4.88-1.47-7.28-.87-4.06-1.98-6.23-2.85-5.56ZM374.52 207.15c-.3-.17-.61-.3-.94-.4-1.4-.58-2.66-.16-6.1 2.07-.78.51-1.78 1.03-2.54 1.56 0 0-2.28 1.22-3.46 1.97-4.91 3.1-5.94 8.99-3.11 7.59 3.25-1.61 9.26-5.65 9.26-5.65 1.47-1.05 2.92-2.1 4.33-3.18 2.4-1.82 3.4-3.36 2.56-3.96ZM345.46 146.76c.27.22.55.4.85.56 1.28.82 2.6.62 6.37-.97.87-.36 1.94-.7 2.78-1.1 0 0 2.46-.79 3.75-1.32 5.39-2.2 7.44-7.8 4.4-6.92-3.48 1.01-10.1 3.93-10.1 3.93-1.64.78-3.25 1.56-4.83 2.37-2.68 1.37-3.93 2.72-3.22 3.45Z"/></svg>