<svg width="320" height="222" fill="none" xmlns="http://www.w3.org/2000/svg"><path opacity=".6" fill-rule="evenodd" clip-rule="evenodd" d="m147.867 0-43.654 92.537c28.044 12.58 42.199 33.947 42.199 58.904 0 39.526-32.383 70.018-72.763 70.018C32.392 221.459 0 190.975 0 151.441c0-8.445.223-14.767 3.374-24.099 3.135-9.279 9.158-21.52 20.68-41.878l.006-.012L73.97 0h73.897Zm-44.075 93.427a93.653 93.653 0 0 0-.9-.398L146.314.983H74.535L24.911 85.948C1.87 126.66.985 134.626.985 151.441c0 38.943 31.901 69.035 72.664 69.035 39.877 0 71.779-30.092 71.779-69.035 0-24.517-13.878-45.57-41.636-58.014ZM319.78 0l-43.649 92.528c28.916 12.585 42.195 33.967 42.195 58.913 0 39.526-32.383 70.018-72.763 70.018-40.363 0-73.649-30.477-73.649-70.018 0-8.446.222-14.772 3.488-24.109 3.248-9.281 9.495-21.522 21.457-41.878l.003-.004L245.878 0h73.902Zm-44.069 93.418a73.952 73.952 0 0 0-.905-.39L318.228.984h-71.779l-48.738 84.965c-23.926 40.712-24.813 48.678-24.813 65.493 0 38.943 32.788 69.035 72.665 69.035 39.877 0 71.779-30.092 71.779-69.035 0-24.523-13.018-45.581-41.631-58.023Z" fill="#fff"/></svg>