<svg xmlns="http://www.w3.org/2000/svg">
  <symbol id="logo">
    <svg ><g clip-path="url(#a)"><path d="M10.5 12.8c-3.94-.9-5.97-2.44-5.97-4.63 0-2.25 2.12-3.97 4.98-3.97 2.93 0 5.14 1.88 5.14 4.35v.18h4.04v-.19C18.69 4.01 14.78.6 9.57.6c-2.49 0-4.8.77-6.46 2.19A7.33 7.33 0 0 0 .49 8.42c0 2.07.8 3.83 2.37 5.21a13.17 13.17 0 0 0 5.91 2.72c4.25.96 6.4 2.56 6.4 4.78 0 2.4-2.33 4.23-5.44 4.23-3.2 0-5.64-2.04-5.64-4.72v-.19H0v.19c0 4.75 4.16 8.33 9.64 8.33 2.61 0 5.05-.8 6.8-2.29a7.59 7.59 0 0 0 2.77-5.89c0-3.98-2.92-6.66-8.71-7.99Zm22.63-5.52a9.44 9.44 0 0 0-7.76 3.92V7.77h-3.82v28.2h3.85V25.23a9.4 9.4 0 0 0 7.76 3.92c5.97 0 10.47-4.69 10.47-10.92C43.6 12 39.1 7.28 33.13 7.28Zm6.46 11.75a7.06 7.06 0 0 1-6.28 6.36 7.13 7.13 0 0 1-5.63-1.76 7.22 7.22 0 0 1-2.31-5.4c0-4.1 3.05-7.19 7.11-7.19 2.1 0 3.97.8 5.33 2.29a7.29 7.29 0 0 1 1.78 5.7ZM90.76 7.77v3.43a9.42 9.42 0 0 0-7.79-3.89c-5.94 0-10.43 4.6-10.43 10.74 0 6.1 4.49 10.73 10.43 10.73a9.48 9.48 0 0 0 7.8-3.85v.52c0 4.26-2.66 7-6.78 7-2.77 0-5.11-1.23-6.19-3.27l-.06-.09h-3.97l.09.28c.7 2.03 2 3.73 3.72 4.9a11.47 11.47 0 0 0 6.4 1.8c3.15 0 5.8-1 7.7-2.9 1.91-1.9 2.93-4.54 2.93-7.66V7.77h-3.85ZM88.61 23.3a7.26 7.26 0 0 1-6.4 1.79 6.84 6.84 0 0 1-5.61-5.9 7.44 7.44 0 0 1 2-6.35c1.32-1.3 3.11-2 5.08-2a6.84 6.84 0 0 1 6.99 6.05c.34 2.5-.4 4.84-2.06 6.41ZM68.3.06a2.89 2.89 0 0 0-2.64.74 2.86 2.86 0 0 0-.74 2.66 2.8 2.8 0 0 0 4.74 1.32A2.8 2.8 0 0 0 68.32.06Zm-2.55 24.87h-3.32c-2.37 0-3.79-1.6-3.79-4.3 0-2.61 1.26-5.76 3.85-9.55l.03-.07V9.93L51.5 8.36c0-.93-.5-1.82-1.3-2.25a2.9 2.9 0 0 0-2.95-.03 2.82 2.82 0 0 0 .34 5.03l-3.42 17.52H48l3.17-16.66 5.94 1.02c-1.6 2.87-2.4 5.55-2.4 7.96 0 4.44 2.68 7.37 7.02 7.65v.03h7.85V7.83h-3.85v17.1h.03Z"/></g><defs><clipPath id="a"><path d="M0 0h95v36H0z"/></clipPath></defs></svg>
  </symbol>

  <symbol id="arrow-down">
    <svg  fill="none"><path d="M1.33 1.18 12 18.64 22.67 1.18"/></svg>
  </symbol>

  <symbol id="arrow-right">
    <svg fill="none"><path d="M25.846 6H0m17.23 4.8L25.847 6l-8.615-4.8v9.6Z"/></svg>
  </symbol>

  <symbol id="fb-icon">
    <svg><path d="M28 14c0-7.733-6.267-14-14-14S0 6.267 0 14c0 6.99 5.119 12.78 11.813 13.83v-9.783H8.258V14h3.555v-3.084c0-3.509 2.089-5.447 5.288-5.447 1.531 0 3.133.273 3.133.273v3.446h-1.766c-1.74 0-2.28 1.08-2.28 2.187V14h3.882l-.62 4.047h-3.262v9.784C22.88 26.78 28 20.989 28 14Z"/></svg>
  </symbol>

  <symbol id="in-icon">
    <svg><path fill-rule="evenodd" clip-rule="evenodd" d="M14 0C6.268 0 0 6.268 0 14s6.268 14 14 14 14-6.268 14-14S21.732 0 14 0ZM6.72 11.595h3.174v9.533H6.72v-9.533Zm3.383-2.948C10.082 7.712 9.413 7 8.328 7s-1.795.712-1.795 1.647c0 .915.689 1.647 1.754 1.647h.02c1.107 0 1.796-.732 1.796-1.647Zm7.58 2.725c2.087 0 3.653 1.362 3.653 4.29v5.466h-3.173v-5.1c0-1.28-.46-2.155-1.608-2.155-.876 0-1.398.59-1.628 1.158-.083.204-.104.489-.104.774v5.323H11.65s.042-8.638 0-9.532h3.173v1.35c.421-.65 1.175-1.574 2.86-1.574Z"/></svg>
  </symbol>

  <symbol id="tw-icon">
    <svg ><path fill-rule="evenodd" clip-rule="evenodd" d="M14 0C6.268 0 0 6.268 0 14s6.268 14 14 14 14-6.268 14-14S21.732 0 14 0Zm-.39 11.864-.03-.485c-.087-1.255.686-2.402 1.91-2.847.45-.158 1.215-.178 1.714-.04.196.06.568.258.832.436l.48.326.529-.168a5.68 5.68 0 0 0 .862-.336c.166-.09.313-.139.313-.11 0 .169-.362.742-.666 1.059-.411.445-.293.484.539.188.5-.169.51-.169.411.02-.059.098-.362.444-.685.76-.549.544-.578.604-.578 1.058 0 .702-.333 2.165-.666 2.966-.617 1.503-1.939 3.055-3.261 3.836-1.86 1.098-4.338 1.374-6.424.732-.695-.218-1.89-.771-1.89-.87 0-.03.362-.07.803-.08a5.512 5.512 0 0 0 2.624-.73l.53-.317-.608-.208c-.862-.296-1.635-.979-1.831-1.621-.059-.208-.04-.218.51-.218l.567-.01-.48-.227c-.568-.287-1.087-.771-1.341-1.265-.186-.356-.421-1.256-.353-1.325.02-.03.225.03.46.108.676.248.764.188.372-.227-.734-.751-.96-1.868-.607-2.926l.167-.475.646.643c1.322 1.295 2.88 2.066 4.661 2.294l.49.059Z"/></svg>
  </symbol>

</svg>
