<svg xmlns="http://www.w3.org/2000/svg" width="20" height="19" fill="none"><path fill="#0B2330" fill-rule="evenodd" d="M1.57 1.57a.25.25 0 0 1 .18-.07h16.5c.07 0 .13.03.18.07.04.05.07.11.07.18v12c0 .07-.03.13-.07.18a.25.25 0 0 1-.18.07h-5.58a1.25 1.25 0 0 0-1.07.6l-1.39 2.32a.25.25 0 0 1-.42 0l-1.4-2.31A1.25 1.25 0 0 0 7.34 14H1.75a.25.25 0 0 1-.25-.25v-12c0-.07.03-.13.07-.18ZM1.75.5A1.25 1.25 0 0 0 .5 1.75v12A1.25 1.25 0 0 0 1.75 15h5.58a.25.25 0 0 1 .21.12l1.39 2.32a1.25 1.25 0 0 0 2.14 0l1.39-2.32a.25.25 0 0 1 .21-.12h5.58a1.25 1.25 0 0 0 1.25-1.25v-12A1.25 1.25 0 0 0 18.25.5H1.75ZM7 5.75a.5.5 0 0 0 0 1h6a.5.5 0 0 0 0-1H7Zm0 3a.5.5 0 0 0 0 1h6a.5.5 0 0 0 0-1H7Z" clip-rule="evenodd"/></svg>