<svg xmlns="http://www.w3.org/2000/svg" width="22" height="15" fill="none"><path fill="#0B2330" fill-rule="evenodd" d="M14.9 1.52c-1.24-.5-2.56-.77-3.9-.77h-.04A10.28 10.28 0 0 0 .75 11.11v2.14A1.25 1.25 0 0 0 2 14.5h18a1.25 1.25 0 0 0 1.25-1.25V11a10.25 10.25 0 0 0-6.35-9.48ZM9.7 13.5H20c.07 0 .13-.03.18-.07a.25.25 0 0 0 .07-.18V11c0-.64-.07-1.28-.2-1.9l-2.4.64a.5.5 0 0 1-.26-.97l2.4-.64a9.25 9.25 0 0 0-8.3-6.36v2.48a.5.5 0 0 1-.99 0V1.76a9.29 9.29 0 0 0-8.27 6.37l2.38.64a.5.5 0 0 1-.26.97L1.97 9.1a9.43 9.43 0 0 0-.22 2v2.15c0 .07.03.13.07.18.05.04.11.07.18.07h6.45l6.26-8.16a.5.5 0 0 1 .8.6L9.7 13.5Z" clip-rule="evenodd"/></svg>