<svg xmlns="http://www.w3.org/2000/svg" width="22" height="14" fill="none"><path fill="#0B2330" fill-rule="evenodd" d="M1.07 1.2a.25.25 0 0 1 .18-.07h12a2.5 2.5 0 0 1 2.5 2.5v9c0 .06-.03.12-.07.17a.25.25 0 0 1-.18.07h-12a2.5 2.5 0 0 1-2.5-2.5v-9c0-.06.03-.12.07-.17Zm15.68 8.16v3.27a1.25 1.25 0 0 1-1.25 1.25h-12a3.5 3.5 0 0 1-3.5-3.5v-9A1.25 1.25 0 0 1 1.25.13h12a3.5 3.5 0 0 1 3.5 3.5v1l4.5-2.56a.5.5 0 0 1 .75.43v9a.5.5 0 0 1-.75.43l-4.5-2.57Zm0-1.15L21 10.64V3.36L16.75 5.8v2.42Z" clip-rule="evenodd"/></svg>