<svg xmlns="http://www.w3.org/2000/svg" width="600" height="112" fill="none"><path fill="#fff" d="m80.19 75.45-7.05-.66L0 81.67V83l80.19-7.55Zm328.23 6.42H304.98v.93h103.44v-.93Zm-113.4 0H191.58v.93h103.44v-.93Zm231.83 8.01L599.99 83v-1.33l-80.19 7.55 7.05.66Z"/><path fill="#fff" fill-rule="evenodd" d="m306.36 112-86.55-8.15 7.04-.66 93.6 8.81h-14.1.01Z" clip-rule="evenodd"/><path fill="#fff" d="m526.85 18.32-7.05.66 80.2 7.55V25.2l-73.15-6.88Zm-221.87 8.01h-9.96v9.74h9.96v-9.74Zm0-10.67h-9.96v9.73h9.96v-9.73ZM80.19 32.75 0 25.2v1.33l73.14 6.88 7.05-.66ZM380.2 4.5 332.25 0h-14.09l55 5.18 7.04-.67ZM295.02 25.4H191.58v.94h103.44v-.94Zm113.4 0H304.98v.94h103.44v-.94Z"/><path fill="#fff" d="M304.98 25.4h-9.96v.93h9.96v-.94Zm68.18 36.25 7.04-.67-47.95-4.5h-14.09l55 5.17ZM219.8 47.2l96.55 9.1h14.09l-103.6-9.76-7.04.66Zm96.55 9.1 1.8.16h14.09l-1.8-.17h-14.1.01ZM304.98 72.3h-9.96v9.57h9.96V72.3Zm0 10.5h-9.96v9.74h9.96V82.8Z"/><path fill="#fff" d="M304.98 81.87h-9.96v.93h9.96v-.93Z"/></svg>