<svg xmlns="http://www.w3.org/2000/svg">
  <symbol id="logo">
<svg fill="none"><g clip-path="url(#a)"><path fill="#000" d="M10.5 12.8c-3.94-.9-5.97-2.44-5.97-4.63 0-2.25 2.12-3.97 4.98-3.97 2.93 0 5.14 1.88 5.14 4.35v.18h4.04v-.19C18.69 4.01 14.78.6 9.57.6c-2.49 0-4.8.77-6.46 2.19A7.33 7.33 0 0 0 .49 8.42c0 2.07.8 3.83 2.37 5.21a13.17 13.17 0 0 0 5.91 2.72c4.25.96 6.4 2.56 6.4 4.78 0 2.4-2.33 4.23-5.44 4.23-3.2 0-5.64-2.04-5.64-4.72v-.19H0v.19c0 4.75 4.16 8.33 9.64 8.33 2.61 0 5.05-.8 6.8-2.29a7.59 7.59 0 0 0 2.77-5.89c0-3.98-2.92-6.66-8.71-7.99Zm22.63-5.52a9.44 9.44 0 0 0-7.76 3.92V7.77h-3.82v28.2h3.85V25.23a9.4 9.4 0 0 0 7.76 3.92c5.97 0 10.47-4.69 10.47-10.92C43.6 12 39.1 7.28 33.13 7.28Zm6.46 11.75a7.06 7.06 0 0 1-6.28 6.36 7.13 7.13 0 0 1-5.63-1.76 7.22 7.22 0 0 1-2.31-5.4c0-4.1 3.05-7.19 7.11-7.19 2.1 0 3.97.8 5.33 2.29a7.29 7.29 0 0 1 1.78 5.7ZM90.76 7.77v3.43a9.42 9.42 0 0 0-7.79-3.89c-5.94 0-10.43 4.6-10.43 10.74 0 6.1 4.49 10.73 10.43 10.73a9.48 9.48 0 0 0 7.8-3.85v.52c0 4.26-2.66 7-6.78 7-2.77 0-5.11-1.23-6.19-3.27l-.06-.09h-3.97l.09.28c.7 2.03 2 3.73 3.72 4.9a11.47 11.47 0 0 0 6.4 1.8c3.15 0 5.8-1 7.7-2.9 1.91-1.9 2.93-4.54 2.93-7.66V7.77h-3.85ZM88.61 23.3a7.26 7.26 0 0 1-6.4 1.79 6.84 6.84 0 0 1-5.61-5.9 7.44 7.44 0 0 1 2-6.35c1.32-1.3 3.11-2 5.08-2a6.84 6.84 0 0 1 6.99 6.05c.34 2.5-.4 4.84-2.06 6.41ZM68.3.06a2.89 2.89 0 0 0-2.64.74 2.86 2.86 0 0 0-.74 2.66 2.8 2.8 0 0 0 4.74 1.32A2.8 2.8 0 0 0 68.32.06Zm-2.55 24.87h-3.32c-2.37 0-3.79-1.6-3.79-4.3 0-2.61 1.26-5.76 3.85-9.55l.03-.07V9.93L51.5 8.36c0-.93-.5-1.82-1.3-2.25a2.9 2.9 0 0 0-2.95-.03 2.82 2.82 0 0 0 .34 5.03l-3.42 17.52H48l3.17-16.66 5.94 1.02c-1.6 2.87-2.4 5.55-2.4 7.96 0 4.44 2.68 7.37 7.02 7.65v.03h7.85V7.83h-3.85v17.1h.03Z"/></g><defs><clipPath id="a"><path fill="#fff" d="M0 0h95v36H0z"/></clipPath></defs></svg>
  </symbol>


</svg>
